<svg xmlns="http://www.w3.org/2000/svg" xmlns:xlink="http://www.w3.org/1999/xlink" width="104" height="103.996" viewBox="0 0 104 103.996"><defs><linearGradient id="a" x1="0.5" x2="0.5" y2="1" gradientUnits="objectBoundingBox"><stop offset="0" stop-color="#2600bf"/><stop offset="1" stop-color="#8a6eff"/></linearGradient><filter id="b" x="0" y="0" width="104" height="103.996" filterUnits="userSpaceOnUse"><feOffset dy="3" input="SourceAlpha"/><feGaussianBlur stdDeviation="4" result="c"/><feFlood flood-opacity="0.161"/><feComposite operator="in" in2="c"/><feComposite in="SourceGraphic"/></filter></defs><g transform="matrix(1, 0, 0, 1, 0, 0)" filter="url(#b)"><path d="M72,32C49.911,32,32,50.357,32,73.018a40.939,40.939,0,0,0,27.357,38.911c2,.375,2.732-.893,2.732-1.982,0-.982-.036-3.554-.054-6.982-11.125,2.482-13.482-5.5-13.482-5.5-1.821-4.732-4.446-6-4.446-6-3.625-2.554.268-2.5.268-2.5C48.393,89.25,50.5,93.2,50.5,93.2c3.571,6.268,9.357,4.464,11.643,3.411a8.812,8.812,0,0,1,2.536-5.482C55.8,90.089,46.464,86.571,46.464,70.857a16.054,16.054,0,0,1,4.107-11A15.1,15.1,0,0,1,50.964,49s3.357-1.107,11,4.2A37.181,37.181,0,0,1,82,53.2c7.643-5.3,10.982-4.2,10.982-4.2a15.1,15.1,0,0,1,.393,10.857,16.12,16.12,0,0,1,4.107,11c0,15.75-9.357,19.214-18.268,20.232,1.429,1.268,2.714,3.768,2.714,7.589,0,5.482-.054,9.911-.054,11.25,0,1.089.714,2.375,2.75,1.964A40.861,40.861,0,0,0,112,73.018C112,50.357,94.089,32,72,32Z" transform="translate(-20 -23)" fill-rule="evenodd" fill="url(#a)"/></g></svg>