<svg height="114" viewBox="0 0 100 114" width="100" xmlns="http://www.w3.org/2000/svg" xmlns:xlink="http://www.w3.org/1999/xlink"><linearGradient id="a" gradientUnits="objectBoundingBox" x1=".5" x2=".5" y2="1"><stop offset="0" stop-color="#8a6eff"/><stop offset="1" stop-color="#2600bf"/></linearGradient><path d="m26 26v114h100v-114zm54.42 88.91c0 11.094-5.714 16.158-14.041 16.158-7.522 0-11.875-4.427-14.107-9.8l7.656-5.268c1.473 2.977 2.813 5.5 6.049 5.5 3.08 0 5.045-1.374 5.045-6.743v-36.413h9.4v36.567zm22.232 16.158c-8.728 0-14.375-4.733-17.121-10.942l7.656-5.039c2.009 3.741 4.643 6.514 9.263 6.514 3.884 0 6.384-2.214 6.384-5.292 0-3.665-2.544-4.962-6.852-7.125l-2.344-1.145c-6.786-3.283-11.272-7.431-11.272-16.158 0-8.041 5.379-14.148 13.75-14.148 5.982 0 10.268 2.367 13.348 8.576l-7.322 5.344c-1.607-3.283-3.348-4.58-6.049-4.58a4.336 4.336 0 0 0 -4.487 4.58c0 3.206 1.741 4.5 5.781 6.514l2.343 1.145c7.991 3.893 12.478 7.889 12.478 16.846 0 9.618-6.652 14.911-15.558 14.911z" fill="url(#a)" transform="translate(-26.002 -26.001)"/></svg>