<svg xmlns="http://www.w3.org/2000/svg" xmlns:xlink="http://www.w3.org/1999/xlink" width="104" height="104" viewBox="0 0 104 104"><defs><linearGradient id="a" x1="0.5" x2="0.5" y2="1" gradientUnits="objectBoundingBox"><stop offset="0" stop-color="#2600bf"/><stop offset="1" stop-color="#8a6eff"/></linearGradient><filter id="b" x="0" y="0" width="104" height="104" filterUnits="userSpaceOnUse"><feOffset dy="3" input="SourceAlpha"/><feGaussianBlur stdDeviation="4" result="c"/><feFlood flood-opacity="0.161"/><feComposite operator="in" in2="c"/><feComposite in="SourceGraphic"/></filter></defs><g transform="matrix(1, 0, 0, 1, 0, 0)" filter="url(#b)"><path d="M70.226,0A9.779,9.779,0,0,1,80,9.774V70.226A9.779,9.779,0,0,1,70.226,80H53.59V49.857H64l1.98-12.91H53.59V28.57c0-3.532,1.73-6.974,7.278-6.974H66.5V10.6a68.686,68.686,0,0,0-10-.872c-10.2,0-16.869,6.183-16.869,17.376v9.839H28.295v12.91h11.34V80H9.774A9.779,9.779,0,0,1,0,70.226V9.774A9.779,9.779,0,0,1,9.774,0H70.226Z" transform="translate(12 9)" fill-rule="evenodd" fill="url(#a)"/></g></svg>