<svg xmlns="http://www.w3.org/2000/svg" xmlns:xlink="http://www.w3.org/1999/xlink" width="104" height="104" viewBox="0 0 104 104"><defs><linearGradient id="a" x1="0.5" x2="0.5" y2="1" gradientUnits="objectBoundingBox"><stop offset="0" stop-color="#2600bf"/><stop offset="1" stop-color="#8a6eff"/></linearGradient><filter id="b" x="0" y="0" width="104" height="104" filterUnits="userSpaceOnUse"><feOffset dy="3" input="SourceAlpha"/><feGaussianBlur stdDeviation="4" result="c"/><feFlood flood-opacity="0.161"/><feComposite operator="in" in2="c"/><feComposite in="SourceGraphic"/></filter></defs><g transform="matrix(1, 0, 0, 1, 0, 0)" filter="url(#b)"><path d="M70.226,0A9.779,9.779,0,0,1,80,9.774V70.226A9.779,9.779,0,0,1,70.226,80H9.774A9.779,9.779,0,0,1,0,70.226V9.774A9.779,9.779,0,0,1,9.774,0H70.226ZM25.072,66.137V30.869H13.347V66.137Zm42.272,0V45.912c0-10.833-5.784-15.873-13.5-15.873a11.644,11.644,0,0,0-10.565,5.823V30.869H31.56c.155,3.31,0,35.268,0,35.268H43.281v-19.7a8.016,8.016,0,0,1,.387-2.862,6.415,6.415,0,0,1,6.015-4.287c4.24,0,5.939,3.235,5.939,7.975v18.87H67.344ZM19.289,13.863c-4.012,0-6.632,2.637-6.632,6.094,0,3.384,2.541,6.094,6.477,6.094h.076c4.088,0,6.633-2.71,6.633-6.094-.076-3.452-2.538-6.087-6.554-6.094Z" transform="translate(12 9)" fill-rule="evenodd" fill="url(#a)"/></g></svg>